HIERARCHY
ROOT hip
{
	OFFSET 0.000000 0.000000 0.000000 
	CHANNELS 6 Xposition Yposition Zposition Xrotation Zrotation Yrotation
	JOINT abdomen
	{
		OFFSET 0.000000 3.402643 0.000000 
		CHANNELS 3 Xrotation Zrotation Yrotation
		JOINT chest
		{
			OFFSET 0.000000 8.438565 -0.680529 
			CHANNELS 3 Xrotation Zrotation Yrotation
			JOINT neck
			{
				OFFSET 0.000000 10.207942 -0.272212 
				CHANNELS 3 Xrotation Zrotation Yrotation
				JOINT head
				{
					OFFSET 0.000000 3.130431 0.000000 
					CHANNELS 3 Xrotation Zrotation Yrotation
					End Site
					{
						OFFSET 0.000000 3.130435 0.000000 
					}
				}
			}
			JOINT lCollar
			{
				OFFSET 3.470700 6.669187 -0.816635 
				CHANNELS 3 Yrotation Zrotation Xrotation
				JOINT lShldr
				{
					OFFSET 3.198488 0.000000 0.000000 
					CHANNELS 3 Zrotation Yrotation Xrotation
					JOINT lForeArm
					{
						OFFSET 10.139888 0.000000 0.000000 
						CHANNELS 3 Yrotation Zrotation Xrotation
						JOINT lHand
						{
							OFFSET 8.370511 0.000000 0.000000 
							CHANNELS 3 Zrotation Yrotation Xrotation
							End Site
							{
								OFFSET 4.083176 0.000000 0.000000 
							}
						}
					}
				}
			}
			JOINT rCollar
			{
				OFFSET -3.470700 6.669187 -0.816635 
				CHANNELS 3 Yrotation Zrotation Xrotation
				JOINT rShldr
				{
					OFFSET -3.198488 0.000000 0.000000 
					CHANNELS 3 Zrotation Yrotation Xrotation
					JOINT rForeArm
					{
						OFFSET -10.139888 0.000000 0.000000 
						CHANNELS 3 Yrotation Zrotation Xrotation
						JOINT rHand
						{
							OFFSET -8.370511 0.000000 0.000000 
							CHANNELS 3 Zrotation Yrotation Xrotation
							End Site
							{
								OFFSET -4.083176 0.000000 0.000000 
							}
						}
					}
				}
			}
		}
	}
	JOINT lThigh
	{
		OFFSET 5.308129 -1.633274 1.361059 
		CHANNELS 3 Xrotation Zrotation Yrotation
		JOINT lShin
		{
			OFFSET -2.041588 -20.007561 0.000000 
			CHANNELS 3 Xrotation Zrotation Yrotation
			JOINT lFoot
			{
				OFFSET 0.000000 -19.190928 -1.224953 
				CHANNELS 3 Xrotation Yrotation Zrotation
				End Site
				{
					OFFSET 0.000000 -2.449906 4.627600 
				}
			}
		}
	}
	JOINT rThigh
	{
		OFFSET -5.308129 -1.633274 1.361059 
		CHANNELS 3 Xrotation Zrotation Yrotation
		JOINT rShin
		{
			OFFSET 2.041588 -20.007561 0.000000 
			CHANNELS 3 Xrotation Zrotation Yrotation
			JOINT rFoot
			{
				OFFSET 0.000000 -19.190928 -1.224953 
				CHANNELS 3 Xrotation Yrotation Zrotation
				End Site
				{
					OFFSET 0.000000 -2.449906 4.627600 
				}
			}
		}
	}
}
MOTION
Frames: 11
Frame Time: 0.016667
4.495529 10.867253 91.423218 73.622070 22.291363 11.674753 36.596172 7.468604 1.501165 0.141931 2.920719 -6.714595 -3.943607 1.416720 -0.036356 7.530735 -9.027592 51.527851 1.923080 16.000938 0.851045 -87.031952 -23.505569 21.567589 -150.000000 5.000000 35.922630 -3.510892 4.831905 45.000000 -8.224785 4.285319 -0.229263 50.994976 -8.721782 -12.501345 150.000000 -5.000000 33.235165 -31.549782 -4.042876 9.797537 4.489607 22.254280 39.982643 50.264465 -3.697223 -4.820301 19.795811 6.110662 -17.482630 24.184877 -20.122173 2.562294 10.732851 5.368952 1.253731 13.949076 -11.646115 14.696857 
4.515969 10.867246 91.455574 73.634628 22.164265 11.571465 36.514980 7.661796 1.538534 0.146466 2.881891 -6.685337 -3.963329 1.347669 -0.035793 7.442321 -9.034058 51.559303 1.905643 15.864415 0.841320 -86.983627 -23.358873 21.454851 -150.000000 5.000000 35.873878 -3.509973 4.859438 45.000000 -8.107833 4.226784 -0.226240 50.833008 -8.978278 -12.615029 150.000000 -5.000000 32.961311 -31.735235 -3.951093 9.718955 4.536719 22.398531 39.988480 50.163284 -3.745952 -4.852440 19.820549 5.845353 -17.314083 24.038776 -20.141369 3.036273 10.697079 5.353454 1.239463 14.689676 -11.463689 14.859392 
4.539127 10.867239 91.488243 73.655388 22.027443 11.464539 36.438747 7.866646 1.623082 0.150206 2.852797 -6.645824 -3.992817 1.297930 -0.038149 7.366217 -9.040129 51.560837 1.900700 15.727570 0.824888 -86.944122 -23.228722 21.374994 -150.000000 5.000000 35.828281 -3.507020 4.874996 45.000000 -8.030608 4.176643 -0.214077 50.653599 -9.193138 -12.684186 150.000000 -5.000000 32.704395 -31.915203 -3.867672 9.666498 4.565855 22.525476 39.979282 50.043682 -3.765700 -4.880244 19.877064 5.611240 -17.179865 23.881525 -20.140652 3.526724 10.686364 5.355278 1.199818 15.511559 -11.285602 15.091559 
4.573176 10.867242 91.522278 73.664162 21.824898 11.332322 36.395412 8.114417 1.765549 0.143621 2.843247 -6.557995 -4.080888 1.248191 -0.040505 7.352800 -9.026348 51.438091 1.913070 15.552038 0.815825 -86.940346 -23.155190 21.402559 -150.000000 5.000000 35.787483 -3.512024 4.895290 45.000000 -8.089458 4.108377 -0.210545 50.429276 -9.222460 -12.639579 150.000000 -5.000000 32.494797 -32.060978 -3.790323 9.724012 4.656029 22.674648 39.982197 49.965870 -3.755760 -4.869258 19.858236 5.387146 -17.191555 23.706848 -20.132383 3.931403 10.697365 5.375541 1.231381 16.646572 -11.077751 15.380768 
4.607226 10.867242 91.556313 73.662384 21.632380 11.191192 36.354595 8.354429 1.926540 0.146301 2.833657 -6.489684 -4.178723 1.208107 -0.044321 7.339279 -9.012337 51.313805 1.915641 15.376513 0.804165 -86.946564 -23.078369 21.447573 -150.000000 5.000000 35.741852 -3.523294 4.909626 45.000000 -8.148267 4.049861 -0.207518 50.203484 -9.245346 -12.587544 150.000000 -5.000000 32.282509 -32.198936 -3.717379 9.793902 4.739405 22.826361 39.985939 49.875809 -3.784889 -4.884301 19.843513 5.148551 -17.175722 23.549715 -20.101870 4.329438 10.686415 5.375007 1.240257 17.737316 -10.873259 15.672287 
4.645353 10.868602 91.576736 73.715378 21.602518 11.060943 36.286983 8.430398 1.937911 0.119703 2.804480 -6.469687 -4.198247 1.198451 -0.042862 7.294482 -9.013723 51.274414 1.994333 15.337490 0.802155 -86.981819 -22.989466 21.451399 -150.000000 5.000000 35.724178 -3.498347 4.891676 45.000000 -8.089212 3.992719 -0.214136 50.065319 -9.291331 -12.539425 150.000000 -5.000000 32.121574 -32.456039 -3.677759 9.858545 4.800673 22.769999 39.988041 49.812115 -3.843553 -4.952840 19.922358 5.133945 -17.306540 23.453241 -20.229969 4.515686 10.668783 5.366458 1.237938 18.096220 -10.668131 15.769235 
4.684495 10.870306 91.593735 73.786270 21.610882 10.934288 36.226635 8.460569 1.928839 0.092148 2.775231 -6.469678 -4.208020 1.208107 -0.044321 7.240983 -9.023581 51.255478 2.082365 15.327722 0.801653 -87.036636 -22.893152 21.456791 -150.000000 5.000000 35.695045 -3.460462 4.872473 45.000000 -8.001576 3.924437 -0.210607 49.944485 -9.334126 -12.480706 150.000000 -5.000000 31.980608 -32.744854 -3.648912 9.935844 4.852361 22.685083 39.984894 49.726563 -3.941204 -5.037258 20.033295 5.120959 -17.464848 23.344601 -20.374521 4.637550 10.630346 5.354637 1.253204 18.337652 -10.470636 15.817542 
4.720234 10.872005 91.607338 73.845329 21.617779 10.829336 36.177544 8.471891 1.942342 0.092320 2.804625 -6.391609 -4.276365 1.188796 -0.041402 7.206898 -9.090809 51.138588 2.100078 15.269569 0.808051 -87.077507 -22.859375 21.472483 -150.000000 5.000000 35.682198 -3.422614 4.853209 45.000000 -8.100171 3.845057 -0.196922 49.814503 -9.296621 -12.386597 150.000000 -5.000000 31.848198 -32.964588 -3.647211 9.983622 4.906124 22.593052 39.972771 49.664085 -3.999678 -5.066859 20.008219 5.110326 -17.634075 23.259657 -20.505289 4.742482 10.623119 5.348281 1.232403 18.367622 -10.337440 15.854766 
4.750859 10.873703 91.615852 73.908089 21.612293 10.767802 36.121365 8.459828 1.996579 0.128369 2.931701 -6.225737 -4.422989 1.110089 -0.039381 7.202672 -9.231483 50.873573 2.033423 15.152550 0.802022 -87.084869 -22.895525 21.504572 -150.000000 5.000000 35.673916 -3.361304 4.829749 45.000000 -8.471633 3.737779 -0.191371 49.661488 -9.111934 -12.249340 150.000000 -5.000000 31.721413 -33.078827 -3.658577 10.033464 4.939314 22.527573 39.988560 49.644142 -3.999853 -5.074906 19.841122 5.071764 -17.879038 23.189606 -20.590549 4.725873 10.612865 5.345786 1.250870 18.106440 -10.293797 15.855353 
4.781484 10.875401 91.624352 73.968918 21.597181 10.702668 36.074356 8.447821 2.051332 0.164458 3.058768 -6.060382 -4.569608 1.041038 -0.038820 7.197918 -9.371047 50.618313 1.966752 15.035527 0.795988 -87.091522 -22.941406 21.536425 -150.000000 5.000000 35.673916 -3.300552 4.792522 45.000000 -8.833350 3.620748 -0.185314 49.499817 -8.942456 -12.112589 150.000000 -5.000000 31.589184 -33.203640 -3.681521 10.081088 4.965397 22.456799 39.984230 49.624542 -3.999818 -5.073196 19.699257 5.008089 -18.120104 23.125189 -20.682840 4.735849 10.592698 5.364858 1.240888 17.868664 -10.211352 15.871898 
4.798492 10.866884 91.626030 73.924324 21.611507 10.628477 36.146530 8.396050 2.083471 0.204083 3.088177 -5.962797 -4.706362 1.089317 -0.046116 7.286861 -9.439640 50.662609 2.073050 15.113542 0.800011 -87.266815 -23.060957 21.717873 -150.000000 5.000000 35.601654 -3.295074 4.809657 45.000000 -9.126351 3.610995 -0.184809 49.358135 -8.732326 -11.999383 150.000000 -5.000000 31.515030 -33.207680 -3.754204 10.058320 5.062723 22.407804 39.973488 49.614185 -4.009439 -5.076546 19.638338 5.072010 -18.256197 23.157448 -20.724945 4.690806 10.583311 5.406517 1.223660 17.974825 -10.248137 15.947887 
